<svg width="884" height="786" viewBox="0 0 884 786" fill="none" xmlns="http://www.w3.org/2000/svg">
<path d="M621.28 485.87C624.28 470.87 623.59 449.02 599.05 438.38C612.17 417.29 606 402.38 594.14 397.09C594.06 391.59 592.62 380.43 582.96 374.44C584.24 364.06 586.32 322.8 539.7 318.18C534.23 308.74 517.11 283.18 489.22 276.1V239.1C482.5 253.21 440.22 261.27 440.22 261.27C391.76 268.04 380.89 295.42 378.44 307.38C372.2 307.57 366.71 308.38 363.62 310.32C353.46 316.67 280.94 335.62 286.62 385.86C285.62 386.2 284.68 386.54 283.71 386.86C283.71 386.86 244.04 418.51 254.71 443.68L250.71 443.97C250.71 443.97 227.71 458.19 234.78 486.21C233.842 487.23 233.168 488.464 232.82 489.805C232.471 491.146 232.457 492.552 232.78 493.9L287.47 676.19C287.826 677.461 288.602 678.575 289.67 679.35C292.14 681.07 297.27 684.5 304.75 688.66L304.81 688.95L305.14 688.88C313.657 693.58 322.446 697.771 331.46 701.43V701.64L331.79 701.58C338.13 704.15 345.08 706.67 352.59 708.99V709.15H352.92C359.87 711.28 367.29 713.24 375.14 714.9V715H375.47C382.84 716.55 390.6 717.83 398.7 718.75H399.01C408.97 719.866 418.988 720.374 429.01 720.27V720.27H429.68C439.064 720.138 448.432 719.47 457.74 718.27H458.07V718.21C465.597 717.237 473.293 715.873 481.16 714.12L481.08 714.9L481.75 714.97L481.85 713.97C489.697 712.183 497.697 709.953 505.85 707.28H506.18V707.12C512.953 704.873 519.817 702.293 526.77 699.38L527.1 699.44V699.22C535.16 695.813 543.327 691.91 551.6 687.51L551.93 687.58L551.99 687.3C556.657 684.8 561.36 682.133 566.1 679.3C567.355 678.543 568.282 677.345 568.7 675.94L623.21 493.51C623.528 492.165 623.512 490.763 623.164 489.426C622.815 488.089 622.144 486.858 621.21 485.84L621.28 485.87Z" fill="url(#paint0_linear)"/>
<path d="M537.48 327.46C537.48 327.46 512.88 276.96 466.26 282.14C419.64 287.32 469.5 335.23 469.5 335.23C469.5 335.23 526.48 339.76 537.48 327.46Z" fill="#FFDAB9"/>
<path opacity="0.1" d="M537.48 327.46C537.48 327.46 512.88 276.96 466.26 282.14C419.64 287.32 469.5 335.23 469.5 335.23C469.5 335.23 526.48 339.76 537.48 327.46Z" fill="black"/>
<path d="M379.51 319.04C379.51 319.04 379.51 318.38 379.63 317.22C380.46 309.13 387.09 276.55 439.72 269.22C439.72 269.22 480.51 261.45 486.98 247.85V289.29C486.98 289.29 478.56 318.43 436.48 328.14C394.4 337.85 379.51 319.04 379.51 319.04Z" fill="#FFDAB9"/>
<path d="M257.14 445.29C257.14 445.29 226.67 464.07 248.07 500.97C269.47 537.87 609.35 500.97 609.35 500.97C609.35 500.97 631.35 455.65 591.87 439.46C552.39 423.27 257.14 445.29 257.14 445.29Z" fill="#FFC0CB"/>
<path opacity="0.1" d="M588.42 401.39C588.34 396.09 586.95 385.39 577.64 379.57C578.87 369.57 580.89 329.8 535.95 325.35C530.67 316.25 514.19 291.57 487.3 284.8V249.11C480.83 262.71 440.04 270.48 440.04 270.48C393.34 277.01 382.86 303.39 380.51 314.91C374.51 315.09 369.21 315.91 366.23 317.74C356.44 323.86 286.55 342.12 291.98 390.54C291.04 390.86 290.11 391.2 289.18 391.54C289.18 391.54 234.08 435.54 274.03 459.85C274.03 459.85 292.42 495.14 346.16 467.94L346.33 467.83C366.57 473.64 420.8 485.83 452.99 461.46L455.3 459.71C468.1 467.34 498.43 481.29 524.21 461.46L524.43 461.29C534.43 470.7 554.78 482.68 579.24 458.22C608.53 428.96 602.84 407.85 588.42 401.39Z" fill="black"/>
<path d="M517.41 452.41C517.41 452.41 543.96 491.9 578.92 456.94C613.88 421.98 598.99 398.67 578.92 398.02C558.85 397.37 517.41 452.41 517.41 452.41Z" fill="#FFDAB9"/>
<path opacity="0.15" d="M517.41 452.41C517.41 452.41 543.96 491.9 578.92 456.94C613.88 421.98 598.99 398.67 578.92 398.02C558.85 397.37 517.41 452.41 517.41 452.41Z" fill="black"/>
<path d="M587.99 403.21C587.99 403.21 594.46 348.21 510.99 390.26C427.52 432.31 448.83 454.36 448.83 454.36C448.83 454.36 490.27 486.09 523.93 460.19C557.59 434.29 578.27 426.52 587.99 403.21Z" fill="#FFDAB9"/>
<path opacity="0.1" d="M587.99 403.21C587.99 403.21 594.46 348.21 510.99 390.26C427.52 432.31 448.83 454.36 448.83 454.36C448.83 454.36 490.27 486.09 523.93 460.19C557.59 434.29 578.27 426.52 587.99 403.21Z" fill="black"/>
<path d="M523.89 386.37C523.89 386.37 492.16 364.37 443.61 386.37C395.06 408.37 338.07 464.07 338.07 464.07C338.07 464.07 412.53 490.65 452.67 460.18C492.81 429.71 521.95 407.09 523.89 386.37Z" fill="#FFDAB9"/>
<path opacity="0.07" d="M523.89 386.37C523.89 386.37 492.16 364.37 443.61 386.37C395.06 408.37 338.07 464.07 338.07 464.07C338.07 464.07 412.53 490.65 452.67 460.18C492.81 429.71 521.95 407.09 523.89 386.37Z" fill="black"/>
<path d="M458.5 383.14C458.5 383.14 393.75 374.08 363.97 392.2C334.19 410.32 273.67 458.57 273.67 458.57C273.67 458.57 292.06 493.86 345.8 466.66C345.84 466.65 457.2 397.38 458.5 383.14Z" fill="#FFDAB9"/>
<path opacity="0.03" d="M458.5 383.14C458.5 383.14 393.75 374.08 363.97 392.2C334.19 410.32 273.67 458.57 273.67 458.57C273.67 458.57 292.06 493.86 345.8 466.66C345.84 466.65 457.2 397.38 458.5 383.14Z" fill="black"/>
<path d="M288.86 390.26C288.86 390.26 231.24 436.26 276.56 460.19C276.56 460.19 372.38 397.39 374.33 390.26C374.33 390.26 329.67 374.72 288.86 390.26Z" fill="#FFDAB9"/>
<path d="M414.47 316.45C414.47 316.45 376.27 309.98 365.91 316.45C355.55 322.92 277.86 343 293.39 398.03L316.67 389.65C316.67 389.65 361.38 333.28 414.47 316.45Z" fill="#FFDAB9"/>
<path opacity="0.1" d="M414.47 316.45C414.47 316.45 376.27 309.98 365.91 316.45C355.55 322.92 277.86 343 293.39 398.03L316.67 389.65C316.67 389.65 361.38 333.28 414.47 316.45Z" fill="black"/>
<path d="M477.92 324.87C477.92 324.87 450.73 299.62 390.51 322.93C330.29 346.24 310.23 388.32 310.23 388.32L400.55 395.12C400.55 395.12 451.37 322.28 477.92 324.87Z" fill="#FFDAB9"/>
<path opacity="0.07" d="M477.92 324.87C477.92 324.87 450.73 299.62 390.51 322.93C330.29 346.24 310.23 388.32 310.23 388.32L400.55 395.12C400.55 395.12 451.37 322.28 477.92 324.87Z" fill="black"/>
<path d="M520 328.1C520 328.1 476.62 313.86 443 333.28C409.38 352.7 397 390.9 397 390.9L450.74 388.31C450.74 388.31 492.81 322.28 520 328.1Z" fill="#FFDAB9"/>
<path opacity="0.03" d="M520 328.1C520 328.1 476.62 313.86 443 333.28C409.38 352.7 397 390.9 397 390.9L450.74 388.31C450.74 388.31 492.81 322.28 520 328.1Z" fill="black"/>
<path d="M576.98 380.55C576.98 380.55 591.87 304.8 493.46 328.11C493.46 328.11 437.53 377.32 453.2 390.91C468.87 404.5 576.98 380.55 576.98 380.55Z" fill="#FFDAB9"/>
<path opacity="0.1" d="M239.81 492.12L292.51 667.79C292.876 669.005 293.64 670.062 294.68 670.79C309.39 681.08 422.57 754.09 561.17 670.79C562.378 670.059 563.269 668.904 563.67 667.55L616.2 491.75C616.486 490.791 616.513 489.773 616.278 488.801C616.043 487.828 615.555 486.934 614.864 486.211C614.172 485.488 613.301 484.961 612.34 484.683C611.378 484.405 610.361 484.387 609.39 484.63L586.57 490.33C585.785 490.528 584.966 490.555 584.17 490.41L562.72 486.41C561.458 486.176 560.153 486.377 559.02 486.98L533.56 500.56C532.333 501.211 530.91 501.389 529.56 501.06L502.17 494.25C501.134 493.99 500.045 494.028 499.03 494.36L467.22 504.77C466.508 505.003 465.758 505.094 465.011 505.035C464.264 504.977 463.537 504.771 462.87 504.43L441.8 493.65C440.467 492.965 438.918 492.836 437.49 493.29L410.32 501.96C409.636 502.177 408.916 502.262 408.2 502.21L382.04 500.38C381.647 500.354 381.259 500.287 380.88 500.18L360.12 494.25C359.244 494.001 358.322 493.967 357.43 494.15L328.67 499.99C327.592 500.211 326.473 500.114 325.45 499.71L297.45 488.62C296.469 488.231 295.399 488.124 294.36 488.31L272.07 492.31C271.169 492.472 270.243 492.414 269.37 492.14L246.91 485.08C245.929 484.778 244.884 484.749 243.888 484.994C242.891 485.239 241.98 485.751 241.251 486.473C240.522 487.196 240.003 488.103 239.75 489.097C239.496 490.092 239.517 491.136 239.81 492.12V492.12Z" fill="black"/>
<path d="M239.81 493.41L292.51 669.08C292.876 670.295 293.64 671.352 294.68 672.08C309.39 682.37 422.57 755.38 561.17 672.08C562.378 671.349 563.269 670.194 563.67 668.84L616.2 493.04C616.486 492.081 616.513 491.063 616.278 490.091C616.043 489.118 615.555 488.224 614.864 487.501C614.172 486.778 613.301 486.251 612.34 485.973C611.378 485.695 610.361 485.677 609.39 485.92L586.59 491.65C585.805 491.848 584.987 491.875 584.19 491.73L562.74 487.73C561.478 487.496 560.173 487.697 559.04 488.3L533.58 501.88C532.353 502.531 530.929 502.709 529.58 502.38L502.2 495.54C501.164 495.28 500.075 495.318 499.06 495.65L467.25 506.06C466.538 506.293 465.788 506.384 465.041 506.325C464.294 506.267 463.567 506.061 462.9 505.72L441.83 494.92C440.497 494.235 438.948 494.106 437.52 494.56L410.35 503.23C409.665 503.447 408.946 503.532 408.23 503.48L382.04 501.65C381.647 501.624 381.259 501.557 380.88 501.45L360.12 495.52C359.244 495.271 358.322 495.237 357.43 495.42L328.67 501.28C327.592 501.501 326.473 501.404 325.45 501L297.45 489.91C296.469 489.521 295.399 489.414 294.36 489.6L272.07 493.6C271.169 493.762 270.243 493.704 269.37 493.43L246.91 486.37C245.929 486.068 244.884 486.039 243.888 486.284C242.891 486.529 241.98 487.041 241.251 487.763C240.522 488.486 240.003 489.393 239.75 490.387C239.496 491.382 239.517 492.426 239.81 493.41V493.41Z" fill="#B0C4DE"/>
<path opacity="0.5" d="M297.62 430.78L292.11 428.86L289.02 423.91L302.76 406.71L308.27 408.63L311.36 413.58L297.62 430.78Z" fill="white"/>
<path opacity="0.5" d="M558.55 459.92L553.03 458L549.95 453.05L563.68 435.85L569.19 437.76L572.28 442.71L558.55 459.92Z" fill="white"/>
<path opacity="0.5" d="M443.95 366.03L438.44 364.12L435.35 359.17L449.08 341.96L454.6 343.88L457.68 348.83L443.95 366.03Z" fill="white"/>
<path opacity="0.5" d="M474.88 429.29L469.55 431.65L463.91 430.15L462.18 408.2L467.51 405.84L473.15 407.34L474.88 429.29Z" fill="white"/>
<path opacity="0.5" d="M385.08 375.41L381.4 379.94L375.69 381.15L364.21 362.37L367.9 357.84L373.61 356.63L385.08 375.41Z" fill="white"/>
<path opacity="0.5" d="M378.61 428.5L374.92 433.03L369.22 434.24L357.74 415.46L361.42 410.93L367.13 409.72L378.61 428.5Z" fill="white"/>
<path opacity="0.5" d="M536.96 433.67L532.73 437.69L526.91 438.16L517.93 418.06L522.17 414.04L527.98 413.57L536.96 433.67Z" fill="white"/>
<path opacity="0.5" d="M508.11 364.79L509.54 359.13L514.2 355.63L532.54 367.81L531.11 373.47L526.45 376.98L508.11 364.79Z" fill="white"/>
<path opacity="0.5" d="M313.16 373.16L307.65 371.24L304.56 366.29L318.3 349.09L323.81 351L326.9 355.95L313.16 373.16Z" fill="#FD6F8D"/>
<path opacity="0.5" d="M382.54 340.82L381.19 335.15L383.71 329.88L405.6 332.21L406.95 337.89L404.43 343.16L382.54 340.82Z" fill="#FD6F8D"/>
<path opacity="0.5" d="M488.62 308.54L489.71 302.81L494.16 299.03L513.18 310.11L512.09 315.84L507.64 319.62L488.62 308.54Z" fill="#FD6F8D"/>
<path opacity="0.5" d="M446.21 279.63L451.9 278.33L457.14 280.9L454.59 302.77L448.9 304.06L443.66 301.49L446.21 279.63Z" fill="#FD6F8D"/>
<path opacity="0.5" d="M407.15 452.19L405.8 446.51L408.31 441.24L430.2 443.57L431.55 449.25L429.04 454.52L407.15 452.19Z" fill="#FD6F8D"/>
<path opacity="0.5" d="M326.21 456.34L322.76 451.63L323.02 445.81L344.09 439.42L347.55 444.13L347.28 449.96L326.21 456.34Z" fill="#FD6F8D"/>
<path opacity="0.5" d="M552.8 417.34L548.01 414.01L546.38 408.4L564.25 395.55L569.04 398.88L570.67 404.48L552.8 417.34Z" fill="#FD6F8D"/>
<path opacity="0.5" d="M401.3 421.87L396.51 418.54L394.87 412.94L412.74 400.08L417.53 403.41L419.17 409.01L401.3 421.87Z" fill="#FD6F8D"/>
<path opacity="0.1" d="M294.4 488.31L272.11 492.31C271.209 492.472 270.283 492.414 269.41 492.14L269.04 492.02L309.61 680.02L269.04 492.02L246.95 485.08C245.971 484.775 244.928 484.741 243.932 484.982C242.935 485.223 242.023 485.729 241.291 486.447C240.56 487.166 240.037 488.069 239.778 489.06C239.518 490.052 239.533 491.096 239.82 492.08L292.52 667.75C292.886 668.965 293.65 670.022 294.69 670.75C299.3 673.98 313.6 683.37 335.32 692.17L296.03 488.17C295.483 488.137 294.934 488.185 294.4 488.31V488.31Z" fill="#B0C4DE"/>
<path opacity="0.1" d="M609.41 484.65L586.59 490.35C585.805 490.548 584.987 490.575 584.19 490.43L562.74 486.43C562.079 486.311 561.401 486.311 560.74 486.43L523.24 690.13L560.72 486.44C560.133 486.544 559.566 486.74 559.04 487.02L533.58 500.6C532.419 501.217 531.079 501.412 529.79 501.15L503.07 697.71C518.304 692.653 533.075 686.296 547.22 678.71L588.11 489.96L547.21 678.65C551.837 676.183 556.503 673.543 561.21 670.73C562.418 669.999 563.309 668.844 563.71 667.49L616.24 491.69C616.51 490.734 616.523 489.724 616.28 488.761C616.036 487.798 615.544 486.916 614.852 486.203C614.161 485.49 613.294 484.972 612.339 484.699C611.384 484.426 610.374 484.409 609.41 484.65V484.65Z" fill="#B0C4DE"/>
<path d="M529.54 501.09L502.17 494.25C501.644 494.12 501.101 494.066 500.56 494.09L479.67 704.23C487.337 702.49 495.15 700.317 503.11 697.71L529.83 501.15L529.54 501.09Z" fill="#B0C4DE"/>
<g opacity="0.5" filter="url(#filter0_i)">
<path opacity="0.5" d="M269.36 493.229L268.725 493.366L309.295 681.327L309.93 681.19L269.36 493.229Z" fill="#708090"/>
<path opacity="0.5" d="M327.414 501.536L326.77 501.628L355.431 700.766L356.074 700.674L327.414 501.536Z" fill="#708090"/>
<path opacity="0.5" d="M296.27 489.291L295.632 489.414L334.956 693.622L335.594 693.5L296.27 489.291Z" fill="#708090"/>
<path opacity="0.5" d="M359.112 495.117L358.465 495.174L377.13 706.401L377.778 706.344L359.112 495.117Z" fill="#708090"/>
<path opacity="0.5" d="M394.363 502.526L393.713 502.545L399.8 710.065L400.45 710.046L394.363 502.526Z" fill="#708090"/>
<path opacity="0.5" d="M428.261 497.626L427.611 497.63L428.993 711.535L429.643 711.531L428.261 497.626Z" fill="#708090"/>
<path opacity="0.5" d="M464.7 506.803L456.378 709.582L457.028 709.609L465.349 506.829L464.7 506.803Z" fill="#708090"/>
<path opacity="0.5" d="M500.296 495.097L479.139 706.32L479.786 706.385L500.943 495.162L500.296 495.097Z" fill="#708090"/>
<path opacity="0.5" d="M525.399 498.069L499.373 696.267L500.017 696.351L526.043 498.154L525.399 498.069Z" fill="#708090"/>
<path opacity="0.5" d="M560.472 487.255L522.84 691.293L523.479 691.411L561.111 487.373L560.472 487.255Z" fill="#708090"/>
<path opacity="0.5" d="M587.745 491.172L546.965 679.948L547.6 680.085L588.38 491.31L587.745 491.172Z" fill="#708090"/>
</g>
<defs>
<filter id="filter0_i" x="268.725" y="487.255" width="319.655" height="228.281" filterUnits="userSpaceOnUse" color-interpolation-filters="sRGB">
<feFlood flood-opacity="0" result="BackgroundImageFix"/>
<feBlend mode="normal" in="SourceGraphic" in2="BackgroundImageFix" result="shape"/>
<feColorMatrix in="SourceAlpha" type="matrix" values="0 0 0 0 0 0 0 0 0 0 0 0 0 0 0 0 0 0 127 0" result="hardAlpha"/>
<feOffset dy="4"/>
<feGaussianBlur stdDeviation="2"/>
<feComposite in2="hardAlpha" operator="arithmetic" k2="-1" k3="1"/>
<feColorMatrix type="matrix" values="0 0 0 0 0 0 0 0 0 0 0 0 0 0 0 0 0 0 0.25 0"/>
<feBlend mode="normal" in2="shape" result="effect1_innerShadow"/>
</filter>
<linearGradient id="paint0_linear" x1="428.01" y1="720.25" x2="428.01" y2="239.08" gradientUnits="userSpaceOnUse">
<stop stop-color="#808080" stop-opacity="0.25"/>
<stop offset="0.54" stop-color="#808080" stop-opacity="0.12"/>
<stop offset="1" stop-color="#808080" stop-opacity="0.1"/>
</linearGradient>
</defs>
</svg>
